<svg xmlns="http://www.w3.org/2000/svg" xmlns:xlink="http://www.w3.org/1999/xlink" width="1920" zoomAndPan="magnify" viewBox="0 0 1440 809.999993" height="1080" preserveAspectRatio="xMidYMid meet" version="1.0"><defs><filter x="0%" y="0%" width="100%" height="100%" id="39c5e720f1"><feColorMatrix values="0 0 0 0 1 0 0 0 0 1 0 0 0 0 1 0 0 0 1 0" color-interpolation-filters="sRGB"/></filter><g/><clipPath id="16725dab96"><path d="M 1100.089844 635.484375 L 1440 635.484375 L 1440 810 L 1100.089844 810 Z M 1100.089844 635.484375 " clip-rule="nonzero"/></clipPath><clipPath id="eafcdd1584"><path d="M 1460.667969 635.484375 C 1261.527344 635.484375 1100.089844 796.921875 1100.089844 996.0625 C 1100.089844 1195.207031 1261.527344 1356.644531 1460.667969 1356.644531 C 1659.8125 1356.644531 1821.25 1195.207031 1821.25 996.0625 C 1821.25 796.921875 1659.8125 635.484375 1460.667969 635.484375 Z M 1460.667969 635.484375 " clip-rule="nonzero"/></clipPath><clipPath id="5a31f1ddd9"><path d="M 1335.566406 721.148438 L 1352.816406 721.148438 L 1352.816406 736.898438 L 1335.566406 736.898438 Z M 1335.566406 721.148438 " clip-rule="nonzero"/></clipPath><mask id="2d18d5c61e"><g filter="url(#39c5e720f1)"><rect x="-144" width="1728" fill="#000000" y="-80.999999" height="971.999992" fill-opacity="0.48"/></g></mask><clipPath id="5c2e0c50ac"><path d="M 0 0.238281 L 1440 0.238281 L 1440 3.601562 L 0 3.601562 Z M 0 0.238281 " clip-rule="nonzero"/></clipPath><clipPath id="c7014d1df0"><rect x="0" width="1440" y="0" height="4"/></clipPath><clipPath id="f3baa547e3"><path d="M 184.878906 326.003906 L 268.664062 326.003906 L 268.664062 409.789062 L 184.878906 409.789062 Z M 184.878906 326.003906 " clip-rule="nonzero"/></clipPath><clipPath id="d9df0c5bcf"><path d="M 226.773438 326.003906 C 203.636719 326.003906 184.878906 344.761719 184.878906 367.898438 C 184.878906 391.035156 203.636719 409.789062 226.773438 409.789062 C 249.910156 409.789062 268.664062 391.035156 268.664062 367.898438 C 268.664062 344.761719 249.910156 326.003906 226.773438 326.003906 Z M 226.773438 326.003906 " clip-rule="nonzero"/></clipPath><clipPath id="a562a80a19"><path d="M 0.878906 0.00390625 L 84.664062 0.00390625 L 84.664062 83.789062 L 0.878906 83.789062 Z M 0.878906 0.00390625 " clip-rule="nonzero"/></clipPath><clipPath id="90c5384cb9"><path d="M 42.773438 0.00390625 C 19.636719 0.00390625 0.878906 18.761719 0.878906 41.898438 C 0.878906 65.035156 19.636719 83.789062 42.773438 83.789062 C 65.910156 83.789062 84.664062 65.035156 84.664062 41.898438 C 84.664062 18.761719 65.910156 0.00390625 42.773438 0.00390625 Z M 42.773438 0.00390625 " clip-rule="nonzero"/></clipPath><clipPath id="064e3c9be4"><rect x="0" width="85" y="0" height="84"/></clipPath><clipPath id="54055e74ba"><path d="M 678.105469 326.003906 L 761.894531 326.003906 L 761.894531 409.789062 L 678.105469 409.789062 Z M 678.105469 326.003906 " clip-rule="nonzero"/></clipPath><clipPath id="84e6eeb93e"><path d="M 720 326.003906 C 696.863281 326.003906 678.105469 344.761719 678.105469 367.898438 C 678.105469 391.035156 696.863281 409.789062 720 409.789062 C 743.136719 409.789062 761.894531 391.035156 761.894531 367.898438 C 761.894531 344.761719 743.136719 326.003906 720 326.003906 Z M 720 326.003906 " clip-rule="nonzero"/></clipPath><clipPath id="6983b50a51"><path d="M 0.105469 0.00390625 L 83.894531 0.00390625 L 83.894531 83.789062 L 0.105469 83.789062 Z M 0.105469 0.00390625 " clip-rule="nonzero"/></clipPath><clipPath id="67fe45a12e"><path d="M 42 0.00390625 C 18.863281 0.00390625 0.105469 18.761719 0.105469 41.898438 C 0.105469 65.035156 18.863281 83.789062 42 83.789062 C 65.136719 83.789062 83.894531 65.035156 83.894531 41.898438 C 83.894531 18.761719 65.136719 0.00390625 42 0.00390625 Z M 42 0.00390625 " clip-rule="nonzero"/></clipPath><clipPath id="21aa159798"><rect x="0" width="84" y="0" height="84"/></clipPath><clipPath id="eb20c75c95"><path d="M 1153.328125 326.003906 L 1237.113281 326.003906 L 1237.113281 409.789062 L 1153.328125 409.789062 Z M 1153.328125 326.003906 " clip-rule="nonzero"/></clipPath><clipPath id="7075d05073"><path d="M 1195.21875 326.003906 C 1172.082031 326.003906 1153.328125 344.761719 1153.328125 367.898438 C 1153.328125 391.035156 1172.082031 409.789062 1195.21875 409.789062 C 1218.355469 409.789062 1237.113281 391.035156 1237.113281 367.898438 C 1237.113281 344.761719 1218.355469 326.003906 1195.21875 326.003906 Z M 1195.21875 326.003906 " clip-rule="nonzero"/></clipPath><clipPath id="126cab76d8"><path d="M 0.328125 0.00390625 L 84.113281 0.00390625 L 84.113281 83.789062 L 0.328125 83.789062 Z M 0.328125 0.00390625 " clip-rule="nonzero"/></clipPath><clipPath id="7d34908da3"><path d="M 42.21875 0.00390625 C 19.082031 0.00390625 0.328125 18.761719 0.328125 41.898438 C 0.328125 65.035156 19.082031 83.789062 42.21875 83.789062 C 65.355469 83.789062 84.113281 65.035156 84.113281 41.898438 C 84.113281 18.761719 65.355469 0.00390625 42.21875 0.00390625 Z M 42.21875 0.00390625 " clip-rule="nonzero"/></clipPath><clipPath id="b5532c736b"><rect x="0" width="85" y="0" height="84"/></clipPath><clipPath id="6ea2d70609"><path d="M 693.617188 363 L 746.117188 363 L 746.117188 388.984375 L 693.617188 388.984375 Z M 693.617188 363 " clip-rule="nonzero"/></clipPath><clipPath id="07525a0e8c"><path d="M 729 346.984375 L 734 346.984375 L 734 360 L 729 360 Z M 729 346.984375 " clip-rule="nonzero"/></clipPath><clipPath id="c5367832e3"><path d="M 1164.773438 340.558594 L 1225.523438 340.558594 L 1225.523438 395.308594 L 1164.773438 395.308594 Z M 1164.773438 340.558594 " clip-rule="nonzero"/></clipPath><clipPath id="8e717a6059"><path d="M 0 0 L 412.855469 0 L 412.855469 154.007812 L 0 154.007812 Z M 0 0 " clip-rule="nonzero"/></clipPath><clipPath id="f5fefee18e"><path d="M 52.277344 -567.152344 C -146.867188 -567.152344 -308.304688 -405.714844 -308.304688 -206.570312 C -308.304688 -7.429688 -146.867188 154.007812 52.277344 154.007812 C 251.417969 154.007812 412.855469 -7.429688 412.855469 -206.570312 C 412.855469 -405.714844 251.417969 -567.152344 52.277344 -567.152344 Z M 52.277344 -567.152344 " clip-rule="nonzero"/></clipPath></defs><rect x="-144" width="1728" fill="#ffffff" y="-80.999999" height="971.999992" fill-opacity="1"/><rect x="-144" width="1728" fill="#000000" y="-80.999999" height="971.999992" fill-opacity="1"/><g clip-path="url(#16725dab96)"><g clip-path="url(#eafcdd1584)"><path stroke-linecap="butt" transform="matrix(0.75, 0, 0, 0.75, 1100.089415, 635.484252)" fill="none" stroke-linejoin="miter" d="M 480.771429 0.00016396 C 215.250583 0.00016396 0.000571829 215.250175 0.000571829 480.771021 C 0.000571829 746.297077 215.250583 961.547087 480.771429 961.547087 C 746.297484 961.547087 961.547495 746.297077 961.547495 480.771021 C 961.547495 215.250175 746.297484 0.00016396 480.771429 0.00016396 Z M 480.771429 0.00016396 " stroke="#ffffff" stroke-width="8" stroke-opacity="1" stroke-miterlimit="4"/></g></g><g clip-path="url(#5a31f1ddd9)"><path fill="#000000" d="M 1348.503906 730.257812 L 1337.113281 730.257812 C 1335.566406 730.257812 1335.566406 727.789062 1337.113281 727.789062 L 1348.503906 727.789062 L 1344.578125 723.996094 C 1343.484375 722.855469 1345.222656 721.148438 1346.378906 722.289062 L 1352.367188 728.167969 C 1352.816406 728.613281 1352.816406 729.371094 1352.367188 729.878906 L 1346.378906 735.757812 C 1345.222656 736.898438 1343.484375 735.125 1344.578125 734.050781 Z M 1348.503906 730.257812 " fill-opacity="1" fill-rule="evenodd"/></g><g mask="url(#2d18d5c61e)"><g transform="matrix(1, 0, 0, 1, 0, 366)"><g clip-path="url(#c7014d1df0)"><g clip-path="url(#5c2e0c50ac)"><path stroke-linecap="butt" transform="matrix(0.75, 0, 0, 0.75, 0.00000622222, 0.397619)" fill="none" stroke-linejoin="miter" d="M -0.0000082963 2.001092 L 1920.000088 2.001092 " stroke="#ffffff" stroke-width="4" stroke-opacity="1" stroke-miterlimit="4"/></g></g></g></g><g clip-path="url(#f3baa547e3)"><g clip-path="url(#d9df0c5bcf)"><g transform="matrix(1, 0, 0, 1, 184, 326)"><g clip-path="url(#064e3c9be4)"><g clip-path="url(#a562a80a19)"><g clip-path="url(#90c5384cb9)"><path fill="#fcd35a" d="M 0.878906 0.00390625 L 84.664062 0.00390625 L 84.664062 83.789062 L 0.878906 83.789062 Z M 0.878906 0.00390625 " fill-opacity="1" fill-rule="nonzero"/></g></g></g></g></g></g><g clip-path="url(#54055e74ba)"><g clip-path="url(#84e6eeb93e)"><g transform="matrix(1, 0, 0, 1, 678, 326)"><g clip-path="url(#21aa159798)"><g clip-path="url(#6983b50a51)"><g clip-path="url(#67fe45a12e)"><path fill="#ba36e9" d="M 0.105469 0.00390625 L 83.894531 0.00390625 L 83.894531 83.789062 L 0.105469 83.789062 Z M 0.105469 0.00390625 " fill-opacity="1" fill-rule="nonzero"/></g></g></g></g></g></g><g clip-path="url(#eb20c75c95)"><g clip-path="url(#7075d05073)"><g transform="matrix(1, 0, 0, 1, 1153, 326)"><g clip-path="url(#b5532c736b)"><g clip-path="url(#126cab76d8)"><g clip-path="url(#7d34908da3)"><path fill="#ffffff" d="M 0.328125 0.00390625 L 84.113281 0.00390625 L 84.113281 83.789062 L 0.328125 83.789062 Z M 0.328125 0.00390625 " fill-opacity="1" fill-rule="nonzero"/></g></g></g></g></g></g><g clip-path="url(#6ea2d70609)"><path fill="#ffffff" d="M 742.160156 369.035156 L 742.160156 367.804688 C 742.160156 367.535156 742.136719 367.269531 742.082031 367.007812 C 742.03125 366.746094 741.953125 366.488281 741.851562 366.242188 C 741.75 365.996094 741.621094 365.757812 741.472656 365.535156 C 741.324219 365.3125 741.15625 365.105469 740.964844 364.917969 C 740.777344 364.726562 740.570312 364.558594 740.347656 364.410156 C 740.125 364.261719 739.890625 364.132812 739.640625 364.03125 C 739.394531 363.929688 739.136719 363.851562 738.875 363.800781 C 738.613281 363.746094 738.347656 363.722656 738.078125 363.722656 L 701.914062 363.722656 C 701.644531 363.722656 701.378906 363.746094 701.117188 363.800781 C 700.851562 363.851562 700.597656 363.929688 700.351562 364.03125 C 700.101562 364.132812 699.867188 364.261719 699.644531 364.410156 C 699.421875 364.558594 699.214844 364.726562 699.023438 364.917969 C 698.835938 365.105469 698.667969 365.3125 698.515625 365.535156 C 698.367188 365.757812 698.242188 365.996094 698.140625 366.242188 C 698.039062 366.488281 697.960938 366.746094 697.90625 367.007812 C 697.855469 367.269531 697.828125 367.535156 697.828125 367.804688 L 697.828125 369.035156 L 693.746094 369.035156 L 693.746094 382.21875 L 697.828125 382.21875 L 697.828125 384.722656 C 697.828125 384.988281 697.855469 385.253906 697.90625 385.515625 C 697.960938 385.78125 698.039062 386.035156 698.140625 386.285156 C 698.242188 386.53125 698.367188 386.765625 698.515625 386.988281 C 698.667969 387.210938 698.835938 387.417969 699.023438 387.609375 C 699.214844 387.796875 699.421875 387.96875 699.644531 388.117188 C 699.867188 388.265625 700.101562 388.390625 700.351562 388.492188 C 700.597656 388.597656 700.851562 388.671875 701.117188 388.726562 C 701.378906 388.777344 701.644531 388.804688 701.914062 388.804688 L 712.792969 388.804688 C 713.199219 388.804688 713.59375 388.746094 713.984375 388.632812 C 714.371094 388.515625 714.734375 388.34375 715.074219 388.117188 C 715.410156 387.894531 715.707031 387.625 715.964844 387.308594 C 716.222656 386.996094 716.429688 386.652344 716.582031 386.277344 L 717.136719 384.929688 C 717.273438 384.601562 717.488281 384.339844 717.78125 384.140625 C 718.078125 383.945312 718.402344 383.847656 718.757812 383.847656 L 721.265625 383.847656 C 721.617188 383.847656 721.945312 383.945312 722.238281 384.140625 C 722.535156 384.339844 722.75 384.601562 722.882812 384.929688 L 723.4375 386.277344 C 723.589844 386.652344 723.796875 386.996094 724.054688 387.308594 C 724.3125 387.625 724.609375 387.894531 724.949219 388.117188 C 725.285156 388.34375 725.648438 388.515625 726.035156 388.632812 C 726.425781 388.746094 726.824219 388.804688 727.230469 388.804688 L 738.078125 388.804688 C 738.347656 388.804688 738.613281 388.777344 738.875 388.726562 C 739.136719 388.671875 739.394531 388.597656 739.640625 388.492188 C 739.890625 388.390625 740.125 388.265625 740.347656 388.117188 C 740.570312 387.96875 740.777344 387.796875 740.964844 387.609375 C 741.15625 387.417969 741.324219 387.210938 741.472656 386.988281 C 741.621094 386.765625 741.75 386.53125 741.851562 386.285156 C 741.953125 386.035156 742.03125 385.78125 742.082031 385.515625 C 742.136719 385.253906 742.160156 384.988281 742.160156 384.722656 L 742.160156 382.21875 L 746.246094 382.21875 L 746.246094 369.035156 Z M 696.078125 379.886719 L 696.078125 371.367188 L 697.828125 371.367188 L 697.828125 379.886719 Z M 739.828125 384.722656 C 739.828125 384.953125 739.785156 385.175781 739.695312 385.390625 C 739.605469 385.605469 739.480469 385.792969 739.316406 385.957031 C 739.152344 386.121094 738.960938 386.25 738.75 386.335938 C 738.535156 386.425781 738.3125 386.472656 738.078125 386.472656 L 727.199219 386.472656 C 726.84375 386.472656 726.519531 386.371094 726.226562 386.175781 C 725.929688 385.980469 725.714844 385.714844 725.582031 385.390625 L 725.027344 384.042969 C 724.871094 383.664062 724.667969 383.320312 724.410156 383.007812 C 724.152344 382.695312 723.855469 382.425781 723.515625 382.199219 C 723.179688 381.972656 722.816406 381.800781 722.425781 381.6875 C 722.039062 381.570312 721.640625 381.511719 721.234375 381.511719 L 718.742188 381.511719 C 718.335938 381.511719 717.9375 381.570312 717.550781 381.6875 C 717.160156 381.800781 716.796875 381.972656 716.460938 382.199219 C 716.121094 382.425781 715.824219 382.695312 715.566406 383.007812 C 715.308594 383.320312 715.105469 383.664062 714.949219 384.042969 L 714.394531 385.390625 C 714.261719 385.714844 714.046875 385.980469 713.75 386.175781 C 713.457031 386.371094 713.132812 386.472656 712.777344 386.472656 L 701.914062 386.472656 C 701.679688 386.472656 701.457031 386.425781 701.242188 386.335938 C 701.027344 386.25 700.839844 386.121094 700.675781 385.957031 C 700.511719 385.792969 700.382812 385.605469 700.296875 385.390625 C 700.207031 385.175781 700.164062 384.953125 700.164062 384.722656 L 700.164062 367.804688 C 700.164062 367.574219 700.207031 367.347656 700.296875 367.136719 C 700.382812 366.921875 700.511719 366.730469 700.675781 366.566406 C 700.839844 366.402344 701.027344 366.277344 701.242188 366.1875 C 701.457031 366.097656 701.679688 366.054688 701.914062 366.054688 L 738.078125 366.054688 C 738.3125 366.054688 738.535156 366.097656 738.75 366.1875 C 738.960938 366.277344 739.152344 366.402344 739.316406 366.566406 C 739.480469 366.730469 739.605469 366.921875 739.695312 367.136719 C 739.785156 367.347656 739.828125 367.574219 739.828125 367.804688 Z M 743.910156 379.886719 L 742.160156 379.886719 L 742.160156 371.367188 L 743.910156 371.367188 Z M 743.910156 379.886719 " fill-opacity="1" fill-rule="nonzero"/></g><path fill="#ffffff" d="M 714.234375 356.339844 C 713.785156 355.414062 713.566406 354.4375 713.582031 353.410156 C 713.601562 352.382812 713.851562 351.414062 714.335938 350.507812 L 712.273438 349.390625 C 711.613281 350.632812 711.269531 351.957031 711.246094 353.367188 C 711.222656 354.773438 711.519531 356.109375 712.140625 357.371094 Z M 714.234375 356.339844 " fill-opacity="1" fill-rule="nonzero"/><path fill="#ffffff" d="M 725.644531 356.550781 L 727.6875 357.664062 C 728.042969 357.003906 728.308594 356.308594 728.484375 355.582031 C 728.660156 354.855469 728.746094 354.113281 728.730469 353.367188 C 728.71875 352.617188 728.613281 351.882812 728.410156 351.160156 C 728.207031 350.4375 727.917969 349.753906 727.539062 349.105469 L 725.535156 350.289062 C 726.121094 351.285156 726.414062 352.359375 726.410156 353.511719 C 726.417969 354.589844 726.160156 355.601562 725.644531 356.550781 Z M 725.644531 356.550781 " fill-opacity="1" fill-rule="nonzero"/><path fill="#ffffff" d="M 710.398438 358.449219 C 709.597656 356.902344 709.199219 355.257812 709.203125 353.511719 C 709.203125 351.6875 709.636719 349.976562 710.503906 348.371094 L 708.464844 347.257812 C 707.953125 348.195312 707.5625 349.183594 707.296875 350.21875 C 707.027344 351.253906 706.886719 352.304688 706.875 353.375 C 706.863281 354.441406 706.980469 355.496094 707.226562 356.539062 C 707.472656 357.578125 707.839844 358.574219 708.328125 359.523438 Z M 710.398438 358.449219 " fill-opacity="1" fill-rule="nonzero"/><g clip-path="url(#07525a0e8c)"><path fill="#ffffff" d="M 729.472656 358.679688 L 731.511719 359.796875 C 732.050781 358.8125 732.453125 357.777344 732.726562 356.6875 C 732.996094 355.601562 733.128906 354.496094 733.117188 353.375 C 733.105469 352.253906 732.953125 351.148438 732.660156 350.066406 C 732.367188 348.984375 731.941406 347.957031 731.386719 346.984375 L 729.359375 348.148438 C 729.820312 348.949219 730.167969 349.792969 730.410156 350.683594 C 730.652344 351.574219 730.777344 352.480469 730.785156 353.402344 C 730.796875 354.324219 730.691406 355.234375 730.46875 356.128906 C 730.246094 357.023438 729.914062 357.875 729.472656 358.683594 Z M 729.472656 358.679688 " fill-opacity="1" fill-rule="nonzero"/></g><path fill="#ffffff" d="M 716.933594 368.097656 L 723.058594 368.097656 L 723.058594 370.429688 L 716.933594 370.429688 Z M 716.933594 368.097656 " fill-opacity="1" fill-rule="nonzero"/><path fill="#ffffff" d="M 719.996094 356.589844 C 720.421875 356.589844 720.832031 356.507812 721.222656 356.347656 C 721.617188 356.183594 721.964844 355.953125 722.265625 355.652344 C 722.566406 355.351562 722.796875 355.003906 722.960938 354.609375 C 723.121094 354.214844 723.203125 353.808594 723.203125 353.382812 C 723.203125 352.957031 723.121094 352.546875 722.960938 352.152344 C 722.796875 351.761719 722.566406 351.414062 722.265625 351.113281 C 721.964844 350.8125 721.617188 350.582031 721.222656 350.417969 C 720.832031 350.253906 720.421875 350.171875 719.996094 350.171875 C 719.570312 350.171875 719.160156 350.253906 718.769531 350.417969 C 718.375 350.582031 718.027344 350.8125 717.726562 351.113281 C 717.425781 351.414062 717.195312 351.761719 717.03125 352.152344 C 716.867188 352.546875 716.789062 352.957031 716.789062 353.382812 C 716.789062 353.808594 716.867188 354.214844 717.03125 354.609375 C 717.195312 355.003906 717.425781 355.351562 717.726562 355.652344 C 718.027344 355.953125 718.375 356.183594 718.769531 356.347656 C 719.160156 356.507812 719.570312 356.589844 719.996094 356.589844 Z M 719.996094 352.507812 C 720.238281 352.507812 720.441406 352.59375 720.613281 352.761719 C 720.785156 352.933594 720.871094 353.140625 720.871094 353.382812 C 720.871094 353.625 720.785156 353.828125 720.613281 354 C 720.441406 354.171875 720.238281 354.257812 719.996094 354.257812 C 719.753906 354.257812 719.546875 354.171875 719.375 354 C 719.207031 353.828125 719.121094 353.625 719.121094 353.382812 C 719.121094 353.140625 719.207031 352.933594 719.375 352.761719 C 719.546875 352.59375 719.753906 352.507812 719.996094 352.507812 Z M 719.996094 352.507812 " fill-opacity="1" fill-rule="nonzero"/><path fill="#000000" d="M 204.761719 373.53125 C 204.742188 371.878906 205.265625 370.121094 206.445312 368.609375 C 206.847656 368.09375 206.761719 367.878906 206.34375 367.453125 C 201.628906 362.667969 203.636719 354.933594 210.074219 352.988281 C 210.960938 352.722656 211.863281 352.570312 212.785156 352.648438 C 213.445312 352.703125 213.722656 352.484375 213.988281 351.835938 C 215.234375 348.769531 217.507812 346.859375 220.894531 346.613281 C 223.367188 346.429688 225.449219 347.445312 227.015625 349.355469 C 227.441406 349.875 227.601562 349.886719 228.074219 349.378906 C 232.617188 344.5 240.496094 346.261719 242.484375 352.597656 C 242.648438 353.113281 242.871094 353.339844 243.363281 353.472656 C 249.445312 355.113281 251.84375 361.835938 248.117188 366.882812 C 247.707031 367.441406 247.863281 367.640625 248.25 368.046875 C 250.878906 370.804688 251.546875 373.992188 250.144531 377.515625 C 248.835938 380.800781 245.589844 382.859375 241.882812 382.816406 C 241.109375 382.804688 240.835938 383.066406 240.570312 383.746094 C 238.34375 389.441406 231.5625 390.632812 227.5 386.054688 C 227.128906 385.640625 227.003906 385.578125 226.582031 386.027344 C 221.878906 391.003906 214.144531 389.289062 212.070312 382.796875 C 211.871094 382.167969 211.484375 382.109375 211.019531 381.984375 C 207.210938 380.96875 204.683594 377.664062 204.757812 373.53125 Z M 228.769531 373.75 C 228.769531 376.765625 228.746094 379.617188 228.789062 382.464844 C 228.796875 383.050781 229.132812 383.59375 229.476562 384.085938 C 230.546875 385.636719 232.441406 386.382812 234.285156 385.988281 C 236.261719 385.566406 237.972656 383.851562 238.183594 381.667969 C 238.339844 380.039062 239.203125 379.660156 240.699219 379.972656 C 243.636719 380.59375 246.578125 378.96875 247.636719 376.257812 C 248.695312 373.542969 247.648438 370.613281 245.039062 369.007812 C 243.609375 368.125 243.570312 367.238281 244.925781 366.183594 C 246.722656 364.785156 247.503906 362.210938 246.816406 359.949219 C 246.132812 357.703125 244.144531 356.148438 241.753906 355.988281 C 240.507812 355.90625 240.148438 355.558594 240.003906 354.359375 C 239.816406 352.761719 239.125 351.433594 237.796875 350.464844 C 235.835938 349.042969 233.15625 348.976562 231.152344 350.339844 C 228.785156 351.949219 228.339844 354.210938 228.871094 356.820312 C 229.347656 359.136719 231.472656 360.816406 233.84375 361.023438 C 234.054688 361.039062 234.269531 361.007812 234.476562 361.046875 C 235.269531 361.191406 235.773438 361.652344 235.734375 362.472656 C 235.699219 363.285156 235.214844 363.753906 234.371094 363.757812 C 233.773438 363.761719 233.179688 363.734375 232.582031 363.617188 C 231.183594 363.339844 229.996094 362.625 228.710938 361.800781 C 228.710938 363.785156 228.691406 365.597656 228.714844 367.410156 C 228.761719 370.558594 230.90625 372.757812 234.121094 372.988281 C 235.1875 373.066406 235.820312 373.660156 235.746094 374.511719 C 235.675781 375.34375 235.054688 375.769531 233.984375 375.746094 C 232.074219 375.707031 230.425781 374.980469 228.769531 373.75 Z M 225.839844 373.71875 C 225.839844 371.628906 225.847656 369.726562 225.835938 367.824219 C 225.824219 366.011719 224.980469 364.613281 223.546875 363.554688 C 222.59375 362.847656 221.496094 362.515625 220.292969 362.46875 C 219.363281 362.433594 218.78125 361.832031 218.808594 361.039062 C 218.835938 360.21875 219.414062 359.753906 220.394531 359.738281 C 221.398438 359.722656 222.351562 359.945312 223.289062 360.277344 C 224.175781 360.589844 224.910156 361.195312 225.851562 361.667969 C 225.851562 361.203125 225.851562 360.859375 225.851562 360.515625 C 225.835938 358.105469 225.867188 355.695312 225.792969 353.289062 C 225.761719 352.15625 225.136719 351.238281 224.269531 350.515625 C 222.925781 349.398438 221.386719 349.046875 219.726562 349.671875 C 217.746094 350.417969 216.632812 351.894531 216.304688 353.960938 C 216.058594 355.523438 215.628906 355.820312 214.03125 355.53125 C 210.917969 354.960938 208.050781 356.429688 206.945312 359.160156 C 205.824219 361.929688 206.882812 364.816406 209.652344 366.535156 C 210.894531 367.308594 210.941406 368.277344 209.785156 369.1875 C 207.835938 370.71875 207.039062 373.21875 207.753906 375.558594 C 208.453125 377.828125 210.394531 379.3125 212.945312 379.476562 C 213.960938 379.542969 214.453125 380.027344 214.5625 381.035156 C 214.875 383.988281 217.167969 386.054688 220.164062 386.136719 C 222.828125 386.210938 225.433594 384.082031 225.796875 381.535156 C 226.269531 378.210938 224.6875 375.460938 221.8125 374.679688 C 221.242188 374.527344 220.628906 374.527344 220.039062 374.421875 C 219.238281 374.277344 218.769531 373.789062 218.820312 372.972656 C 218.871094 372.222656 219.324219 371.742188 220.117188 371.726562 C 220.675781 371.714844 221.246094 371.757812 221.800781 371.84375 C 223.25 372.070312 224.492188 372.777344 225.839844 373.71875 Z M 225.839844 373.71875 " fill-opacity="1" fill-rule="nonzero"/><path fill="#000000" d="M 215.628906 361.691406 C 215.628906 362.066406 215.558594 362.421875 215.414062 362.765625 C 215.269531 363.109375 215.0625 363.414062 214.796875 363.675781 C 214.53125 363.941406 214.222656 364.144531 213.875 364.285156 C 213.527344 364.429688 213.164062 364.5 212.789062 364.5 C 212.410156 364.5 212.050781 364.429688 211.699219 364.285156 C 211.351562 364.144531 211.046875 363.941406 210.78125 363.675781 C 210.511719 363.414062 210.308594 363.109375 210.164062 362.765625 C 210.019531 362.421875 209.949219 362.066406 209.949219 361.691406 C 209.949219 361.320312 210.019531 360.960938 210.164062 360.617188 C 210.308594 360.273438 210.511719 359.96875 210.78125 359.707031 C 211.046875 359.445312 211.351562 359.242188 211.699219 359.097656 C 212.050781 358.957031 212.410156 358.882812 212.789062 358.882812 C 213.164062 358.882812 213.527344 358.957031 213.875 359.097656 C 214.222656 359.242188 214.53125 359.445312 214.796875 359.707031 C 215.0625 359.96875 215.269531 360.273438 215.414062 360.617188 C 215.558594 360.960938 215.628906 361.320312 215.628906 361.691406 Z M 215.628906 361.691406 " fill-opacity="1" fill-rule="nonzero"/><path fill="#000000" d="M 216.640625 373.890625 C 216.640625 374.261719 216.570312 374.621094 216.425781 374.964844 C 216.28125 375.308594 216.074219 375.609375 215.808594 375.875 C 215.542969 376.136719 215.234375 376.339844 214.886719 376.484375 C 214.539062 376.625 214.175781 376.695312 213.800781 376.695312 C 213.425781 376.695312 213.0625 376.625 212.714844 376.484375 C 212.367188 376.339844 212.058594 376.136719 211.792969 375.875 C 211.527344 375.609375 211.320312 375.308594 211.175781 374.964844 C 211.03125 374.621094 210.960938 374.261719 210.960938 373.890625 C 210.960938 373.515625 211.03125 373.160156 211.175781 372.816406 C 211.320312 372.46875 211.527344 372.167969 211.792969 371.902344 C 212.058594 371.640625 212.367188 371.4375 212.714844 371.292969 C 213.0625 371.152344 213.425781 371.082031 213.800781 371.082031 C 214.175781 371.082031 214.539062 371.152344 214.886719 371.292969 C 215.234375 371.4375 215.542969 371.640625 215.808594 371.902344 C 216.074219 372.167969 216.28125 372.46875 216.425781 372.816406 C 216.570312 373.160156 216.640625 373.515625 216.640625 373.890625 Z M 216.640625 373.890625 " fill-opacity="1" fill-rule="nonzero"/><path fill="#000000" d="M 244.039062 361.691406 C 244.039062 362.066406 243.964844 362.421875 243.820312 362.765625 C 243.675781 363.109375 243.472656 363.414062 243.207031 363.675781 C 242.9375 363.941406 242.632812 364.144531 242.285156 364.285156 C 241.9375 364.429688 241.574219 364.5 241.195312 364.5 C 240.820312 364.5 240.457031 364.429688 240.109375 364.285156 C 239.761719 364.144531 239.453125 363.941406 239.1875 363.675781 C 238.921875 363.414062 238.714844 363.109375 238.574219 362.765625 C 238.429688 362.421875 238.355469 362.066406 238.355469 361.691406 C 238.355469 361.320312 238.429688 360.960938 238.574219 360.617188 C 238.714844 360.273438 238.921875 359.96875 239.1875 359.707031 C 239.453125 359.445312 239.761719 359.242188 240.109375 359.097656 C 240.457031 358.957031 240.820312 358.882812 241.195312 358.882812 C 241.574219 358.882812 241.9375 358.957031 242.285156 359.097656 C 242.632812 359.242188 242.9375 359.445312 243.207031 359.707031 C 243.472656 359.96875 243.675781 360.273438 243.820312 360.617188 C 243.964844 360.960938 244.039062 361.320312 244.039062 361.691406 Z M 244.039062 361.691406 " fill-opacity="1" fill-rule="nonzero"/><path fill="#000000" d="M 244.039062 374.21875 C 244.039062 374.59375 243.964844 374.949219 243.820312 375.292969 C 243.675781 375.636719 243.472656 375.941406 243.207031 376.207031 C 242.9375 376.46875 242.632812 376.671875 242.285156 376.8125 C 241.9375 376.957031 241.574219 377.027344 241.195312 377.027344 C 240.820312 377.027344 240.457031 376.957031 240.109375 376.8125 C 239.761719 376.671875 239.453125 376.46875 239.1875 376.207031 C 238.921875 375.941406 238.714844 375.636719 238.574219 375.292969 C 238.429688 374.949219 238.355469 374.59375 238.355469 374.21875 C 238.355469 373.847656 238.429688 373.488281 238.574219 373.144531 C 238.714844 372.800781 238.921875 372.496094 239.1875 372.234375 C 239.453125 371.972656 239.761719 371.769531 240.109375 371.625 C 240.457031 371.484375 240.820312 371.410156 241.195312 371.410156 C 241.574219 371.410156 241.9375 371.484375 242.285156 371.625 C 242.632812 371.769531 242.9375 371.972656 243.207031 372.234375 C 243.472656 372.496094 243.675781 372.800781 243.820312 373.144531 C 243.964844 373.488281 244.039062 373.847656 244.039062 374.21875 Z M 244.039062 374.21875 " fill-opacity="1" fill-rule="nonzero"/><path fill="#000000" d="M 1191.808594 380.085938 C 1192.488281 380.085938 1193.035156 379.597656 1193.035156 378.921875 C 1193.035156 378.246094 1192.488281 377.761719 1191.808594 377.761719 L 1190.113281 377.761719 C 1189.4375 377.761719 1188.886719 378.246094 1188.886719 378.921875 C 1188.886719 379.597656 1189.4375 380.085938 1190.113281 380.085938 Z M 1191.808594 380.085938 " fill-opacity="1" fill-rule="nonzero"/><g clip-path="url(#c5367832e3)"><path fill="#000000" d="M 1222.890625 361.308594 L 1222.484375 361.308594 C 1222.117188 361.308594 1221.769531 361.382812 1221.453125 361.519531 C 1220.574219 359.226562 1219.097656 357.222656 1217.210938 355.703125 C 1216.386719 351.996094 1214.273438 348.609375 1211.050781 345.929688 C 1206.898438 342.476562 1201.355469 340.566406 1195.445312 340.566406 C 1195.03125 340.566406 1194.609375 340.574219 1194.199219 340.589844 C 1183.125 341.074219 1174.738281 347.269531 1172.945312 355.792969 C 1171.113281 357.296875 1169.671875 359.273438 1168.8125 361.527344 C 1168.492188 361.386719 1168.140625 361.308594 1167.765625 361.308594 L 1167.3125 361.308594 C 1165.878906 361.308594 1164.804688 362.464844 1164.804688 363.898438 L 1164.804688 368.898438 C 1164.804688 370.328125 1165.878906 371.503906 1167.3125 371.503906 L 1167.765625 371.503906 C 1168.140625 371.503906 1168.492188 371.417969 1168.8125 371.277344 C 1169.992188 374.359375 1172.25 376.910156 1175.121094 378.472656 C 1178.449219 388.925781 1184.96875 394.746094 1194.277344 395.246094 C 1194.519531 395.308594 1194.785156 395.28125 1195.039062 395.277344 L 1195.09375 395.273438 L 1195.152344 395.277344 C 1195.304688 395.28125 1195.457031 395.28125 1195.609375 395.28125 C 1195.714844 395.28125 1195.816406 395.269531 1195.914062 395.246094 C 1205.207031 394.746094 1211.722656 388.941406 1215.050781 378.519531 C 1217.96875 376.964844 1220.261719 374.394531 1221.453125 371.28125 C 1221.769531 371.417969 1222.117188 371.503906 1222.484375 371.503906 L 1222.890625 371.503906 C 1224.316406 371.503906 1225.503906 370.335938 1225.503906 368.914062 L 1225.503906 363.878906 C 1225.503906 362.457031 1224.316406 361.308594 1222.890625 361.308594 Z M 1194.304688 343.035156 C 1194.683594 343.019531 1195.066406 343.007812 1195.441406 343.011719 C 1200.78125 343.015625 1205.769531 344.71875 1209.480469 347.808594 C 1211.542969 349.519531 1213.078125 351.585938 1214.03125 353.816406 C 1212.367188 353.09375 1210.53125 352.726562 1208.601562 352.726562 L 1202.351562 352.726562 C 1202.371094 352.546875 1202.40625 352.414062 1202.40625 352.285156 L 1202.40625 351.949219 C 1202.40625 350.507812 1201.207031 349.328125 1199.761719 349.328125 L 1190.503906 349.328125 C 1189.058594 349.328125 1187.902344 350.507812 1187.902344 351.949219 L 1187.902344 352.285156 C 1187.902344 352.414062 1187.898438 352.546875 1187.917969 352.726562 L 1181.664062 352.726562 C 1179.6875 352.726562 1177.808594 353.117188 1176.109375 353.867188 C 1178.664062 347.734375 1185.539062 343.417969 1194.304688 343.035156 Z M 1208.601562 377.761719 L 1196.035156 377.761719 C 1195.355469 377.761719 1194.808594 378.246094 1194.808594 378.921875 C 1194.808594 379.597656 1195.355469 380.085938 1196.035156 380.085938 L 1208.601562 380.085938 C 1209.785156 380.085938 1210.933594 379.953125 1212.03125 379.671875 C 1211.714844 380.503906 1211.375 381.3125 1211.011719 382.066406 C 1207.71875 388.890625 1202.519531 392.507812 1195.558594 392.808594 C 1195.496094 392.808594 1195.433594 392.820312 1195.375 392.832031 C 1195.320312 392.828125 1195.265625 392.828125 1195.210938 392.828125 L 1195.121094 392.828125 C 1195.113281 392.828125 1195.105469 392.828125 1195.09375 392.828125 C 1195.085938 392.828125 1195.078125 392.828125 1195.066406 392.828125 L 1194.980469 392.832031 C 1194.925781 392.832031 1194.867188 392.832031 1194.8125 392.832031 C 1194.753906 392.820312 1194.695312 392.816406 1194.632812 392.8125 C 1187.667969 392.511719 1182.46875 388.898438 1179.175781 382.074219 C 1178.808594 381.316406 1178.46875 380.488281 1178.148438 379.648438 C 1179.273438 379.945312 1180.449219 380.085938 1181.667969 380.085938 L 1186.234375 380.085938 C 1186.910156 380.085938 1187.460938 379.597656 1187.460938 378.921875 C 1187.460938 378.246094 1186.910156 377.761719 1186.234375 377.761719 L 1181.664062 377.761719 C 1175.433594 377.761719 1170.367188 372.628906 1170.367188 366.40625 C 1170.367188 360.183594 1175.433594 355.050781 1181.664062 355.050781 L 1208.601562 355.050781 C 1214.832031 355.050781 1219.902344 360.183594 1219.902344 366.40625 C 1219.902344 372.628906 1214.832031 377.761719 1208.601562 377.761719 Z M 1208.601562 377.761719 " fill-opacity="1" fill-rule="nonzero"/></g><path fill="#000000" d="M 1209.023438 356.839844 L 1181.246094 356.839844 C 1176.015625 356.839844 1171.785156 361.085938 1171.785156 366.308594 L 1171.785156 366.484375 C 1171.785156 371.707031 1176.015625 375.972656 1181.246094 375.972656 L 1209.023438 375.972656 C 1214.25 375.972656 1218.523438 371.707031 1218.523438 366.484375 L 1218.523438 366.308594 C 1218.523438 361.085938 1214.25 356.839844 1209.023438 356.839844 Z M 1187.644531 371.09375 C 1187.332031 371.09375 1187.015625 370.976562 1186.777344 370.738281 C 1186.300781 370.257812 1186.300781 369.484375 1186.777344 369.007812 L 1193.640625 362.152344 C 1194.117188 361.675781 1194.894531 361.675781 1195.371094 362.152344 C 1195.851562 362.632812 1195.851562 363.40625 1195.371094 363.882812 L 1188.511719 370.738281 C 1188.269531 370.976562 1187.957031 371.09375 1187.644531 371.09375 Z M 1202.398438 363.882812 L 1195.535156 370.738281 C 1195.296875 370.976562 1194.980469 371.09375 1194.667969 371.09375 C 1194.355469 371.09375 1194.042969 370.976562 1193.800781 370.738281 C 1193.324219 370.257812 1193.324219 369.484375 1193.800781 369.007812 L 1200.664062 362.152344 C 1201.140625 361.675781 1201.917969 361.675781 1202.398438 362.152344 C 1202.875 362.632812 1202.875 363.40625 1202.398438 363.882812 Z M 1202.398438 363.882812 " fill-opacity="1" fill-rule="nonzero"/><path fill="#000000" d="M 1188.808594 383.785156 C 1188.335938 384.269531 1188.34375 385.042969 1188.828125 385.515625 C 1190.011719 386.675781 1192.3125 388.039062 1195.085938 388.039062 C 1197 388.039062 1199.140625 387.390625 1201.292969 385.578125 C 1201.8125 385.144531 1201.878906 384.371094 1201.441406 383.855469 C 1201.007812 383.335938 1200.234375 383.269531 1199.714844 383.707031 C 1194.855469 387.796875 1190.722656 383.945312 1190.539062 383.765625 C 1190.054688 383.296875 1189.28125 383.304688 1188.808594 383.785156 Z M 1188.808594 383.785156 " fill-opacity="1" fill-rule="nonzero"/><g clip-path="url(#8e717a6059)"><g clip-path="url(#f5fefee18e)"><path stroke-linecap="butt" transform="matrix(0.75, 0, 0, 0.75, -308.304528, -567.151991)" fill="none" stroke-linejoin="miter" d="M 480.775853 -0.00046971 C 215.249798 -0.00046971 -0.000212843 215.249541 -0.000212843 480.775596 C -0.000212843 746.296443 215.249798 961.546454 480.775853 961.546454 C 746.2967 961.546454 961.546711 746.296443 961.546711 480.775596 C 961.546711 215.249541 746.2967 -0.00046971 480.775853 -0.00046971 Z M 480.775853 -0.00046971 " stroke="#ffffff" stroke-width="8" stroke-opacity="1" stroke-miterlimit="4"/></g></g><g fill="#ffffff" fill-opacity="1"><g transform="translate(290.71376, 248.158148)"><g><path d="M 31.4375 -54.875 L 31.4375 -47.875 C 31.4375 -47.082031 31.0625 -46.6875 30.3125 -46.6875 L 12.8125 -46.6875 L 12.8125 -32.6875 L 26.1875 -32.6875 C 26.925781 -32.6875 27.296875 -32.289062 27.296875 -31.5 L 27.296875 -24.5625 C 27.296875 -23.769531 26.925781 -23.375 26.1875 -23.375 L 12.8125 -23.375 L 12.8125 -9.234375 L 30.3125 -9.234375 C 31.0625 -9.234375 31.4375 -8.863281 31.4375 -8.125 L 31.4375 -1.125 C 31.4375 -0.375 31.0625 0 30.3125 0 L 4.546875 0 C 3.847656 0 3.5 -0.375 3.5 -1.125 L 3.5 -54.875 C 3.5 -55.625 3.847656 -56 4.546875 -56 L 30.3125 -56 C 31.0625 -56 31.4375 -55.625 31.4375 -54.875 Z M 31.4375 -54.875 "/></g></g></g><g fill="#ffffff" fill-opacity="1"><g transform="translate(325.641848, 248.158148)"><g><path d="M 3.21875 -56 L 28.984375 -56 C 29.722656 -56 30.09375 -55.625 30.09375 -54.875 L 30.09375 -47.875 C 30.09375 -47.132812 29.722656 -46.765625 28.984375 -46.765625 L 20.859375 -46.765625 L 20.859375 -1.125 C 20.859375 -0.375 20.484375 0 19.734375 0 L 12.453125 0 C 11.710938 0 11.34375 -0.375 11.34375 -1.125 L 11.34375 -46.765625 L 3.21875 -46.765625 C 2.46875 -46.765625 2.09375 -47.132812 2.09375 -47.875 L 2.09375 -54.875 C 2.09375 -55.625 2.46875 -56 3.21875 -56 Z M 3.21875 -56 "/></g></g></g><g fill="#ffffff" fill-opacity="1"><g transform="translate(357.840085, 248.158148)"><g><path d="M 21.984375 -32.625 L 21.984375 -54.875 C 21.984375 -55.625 22.351562 -56 23.09375 -56 L 30.3125 -56 C 31.101562 -56 31.5 -55.625 31.5 -54.875 L 31.5 -1.125 C 31.5 -0.375 31.101562 0 30.3125 0 L 23.09375 0 C 22.351562 0 21.984375 -0.375 21.984375 -1.125 L 21.984375 -23.375 L 13.015625 -23.375 L 13.015625 -1.125 C 13.015625 -0.375 12.644531 0 11.90625 0 L 4.6875 0 C 3.894531 0 3.5 -0.375 3.5 -1.125 L 3.5 -54.875 C 3.5 -55.625 3.894531 -56 4.6875 -56 L 11.90625 -56 C 12.644531 -56 13.015625 -55.625 13.015625 -54.875 L 13.015625 -32.625 Z M 21.984375 -32.625 "/></g></g></g><g fill="#ffffff" fill-opacity="1"><g transform="translate(392.838176, 248.158148)"><g><path d="M 4.625 -56 L 11.90625 -56 C 12.644531 -56 13.015625 -55.625 13.015625 -54.875 L 13.015625 -1.125 C 13.015625 -0.375 12.644531 0 11.90625 0 L 4.625 0 C 3.875 0 3.5 -0.375 3.5 -1.125 L 3.5 -54.875 C 3.5 -55.625 3.875 -56 4.625 -56 Z M 4.625 -56 "/></g></g></g><g fill="#ffffff" fill-opacity="1"><g transform="translate(409.357275, 248.158148)"><g><path d="M 31.5625 -45.921875 L 31.5625 -38.359375 C 31.5625 -37.609375 31.191406 -37.234375 30.453125 -37.234375 L 23.453125 -37.234375 C 22.703125 -37.234375 22.328125 -37.609375 22.328125 -38.359375 L 22.328125 -43.953125 C 22.328125 -45.828125 21.394531 -46.765625 19.53125 -46.765625 L 15.890625 -46.765625 C 14.023438 -46.765625 13.09375 -45.828125 13.09375 -43.953125 L 13.09375 -12.046875 C 13.09375 -10.171875 14.023438 -9.234375 15.890625 -9.234375 L 19.53125 -9.234375 C 21.394531 -9.234375 22.328125 -10.171875 22.328125 -12.046875 L 22.328125 -17.640625 C 22.328125 -18.390625 22.703125 -18.765625 23.453125 -18.765625 L 30.453125 -18.765625 C 31.191406 -18.765625 31.5625 -18.390625 31.5625 -17.640625 L 31.5625 -10.078125 C 31.5625 -6.816406 30.695312 -4.320312 28.96875 -2.59375 C 27.25 -0.863281 24.753906 0 21.484375 0 L 13.65625 0 C 10.382812 0 7.875 -0.863281 6.125 -2.59375 C 4.375 -4.320312 3.5 -6.816406 3.5 -10.078125 L 3.5 -45.921875 C 3.5 -49.234375 4.375 -51.738281 6.125 -53.4375 C 7.875 -55.144531 10.382812 -56 13.65625 -56 L 21.484375 -56 C 24.753906 -56 27.25 -55.144531 28.96875 -53.4375 C 30.695312 -51.738281 31.5625 -49.234375 31.5625 -45.921875 Z M 31.5625 -45.921875 "/></g></g></g><g fill="#ffffff" fill-opacity="1"><g transform="translate(444.425358, 248.158148)"><g><path d="M 37.234375 0 L 29.8125 0 C 29.207031 0 28.835938 -0.328125 28.703125 -0.984375 L 26.734375 -11.203125 L 14.28125 -11.203125 L 12.390625 -0.984375 C 12.253906 -0.328125 11.878906 0 11.265625 0 L 3.78125 0 C 2.9375 0 2.632812 -0.394531 2.875 -1.1875 L 14.484375 -55.015625 C 14.628906 -55.671875 15.03125 -56 15.6875 -56 L 25.40625 -56 C 26.0625 -56 26.457031 -55.671875 26.59375 -55.015625 L 38.21875 -1.1875 C 38.363281 -0.394531 38.035156 0 37.234375 0 Z M 24.984375 -19.3125 L 20.515625 -43.75 L 16.03125 -19.3125 Z M 24.984375 -19.3125 "/></g></g></g><g fill="#ffffff" fill-opacity="1"><g transform="translate(485.443121, 248.158148)"><g><path d="M 13.015625 -9.234375 L 13.015625 -54.875 C 13.015625 -55.625 12.644531 -56 11.90625 -56 L 4.625 -56 C 3.875 -56 3.5 -55.625 3.5 -54.875 L 3.5 -1.125 C 3.5 -0.375 3.875 0 4.625 0 L 29.6875 0 C 30.425781 0 30.796875 -0.375 30.796875 -1.125 L 30.796875 -8.125 C 30.796875 -8.863281 30.425781 -9.234375 29.6875 -9.234375 Z M 13.015625 -9.234375 "/></g></g></g><g fill="#ffffff" fill-opacity="1"><g transform="translate(519.741245, 248.158148)"><g/></g></g><g fill="#ffffff" fill-opacity="1"><g transform="translate(537.240291, 248.158148)"><g><path d="M 37.234375 0 L 29.8125 0 C 29.207031 0 28.835938 -0.328125 28.703125 -0.984375 L 26.734375 -11.203125 L 14.28125 -11.203125 L 12.390625 -0.984375 C 12.253906 -0.328125 11.878906 0 11.265625 0 L 3.78125 0 C 2.9375 0 2.632812 -0.394531 2.875 -1.1875 L 14.484375 -55.015625 C 14.628906 -55.671875 15.03125 -56 15.6875 -56 L 25.40625 -56 C 26.0625 -56 26.457031 -55.671875 26.59375 -55.015625 L 38.21875 -1.1875 C 38.363281 -0.394531 38.035156 0 37.234375 0 Z M 24.984375 -19.3125 L 20.515625 -43.75 L 16.03125 -19.3125 Z M 24.984375 -19.3125 "/></g></g></g><g fill="#ffffff" fill-opacity="1"><g transform="translate(578.258042, 248.158148)"><g><path d="M 24.984375 -56 L 32.265625 -56 C 33.015625 -56 33.390625 -55.625 33.390625 -54.875 L 33.390625 -1.125 C 33.390625 -0.375 33.015625 0 32.265625 0 L 25.34375 0 C 24.6875 0 24.265625 -0.300781 24.078125 -0.90625 L 13.375 -30.796875 L 13.015625 -30.796875 L 13.015625 -1.125 C 13.015625 -0.375 12.644531 0 11.90625 0 L 4.625 0 C 3.875 0 3.5 -0.375 3.5 -1.125 L 3.5 -54.875 C 3.5 -55.625 3.875 -56 4.625 -56 L 11.546875 -56 C 12.203125 -56 12.625 -55.695312 12.8125 -55.09375 L 23.453125 -25.34375 L 23.875 -25.34375 L 23.875 -54.875 C 23.875 -55.625 24.242188 -56 24.984375 -56 Z M 24.984375 -56 "/></g></g></g><g fill="#ffffff" fill-opacity="1"><g transform="translate(615.146033, 248.158148)"><g><path d="M 3.5 -1.125 L 3.5 -54.875 C 3.5 -55.625 3.875 -56 4.625 -56 L 21.421875 -56 C 24.734375 -56 27.238281 -55.132812 28.9375 -53.40625 C 30.644531 -51.675781 31.5 -49.15625 31.5 -45.84375 L 31.5 -10.078125 C 31.5 -6.816406 30.644531 -4.320312 28.9375 -2.59375 C 27.238281 -0.863281 24.734375 0 21.421875 0 L 4.625 0 C 3.875 0 3.5 -0.375 3.5 -1.125 Z M 13.015625 -9.234375 L 19.453125 -9.234375 C 21.328125 -9.234375 22.265625 -10.171875 22.265625 -12.046875 L 22.265625 -43.890625 C 22.265625 -45.804688 21.328125 -46.765625 19.453125 -46.765625 L 13.015625 -46.765625 Z M 13.015625 -9.234375 "/></g></g></g><g fill="#fcd35a" fill-opacity="1"><g transform="translate(668.141349, 248.158148)"><g><path d="M 32.265625 -45.921875 L 32.265625 -28.84375 C 32.265625 -24.175781 30.5625 -21.09375 27.15625 -19.59375 L 31.984375 -1.265625 C 32.222656 -0.421875 31.898438 0 31.015625 0 L 23.734375 0 C 23.078125 0 22.679688 -0.328125 22.546875 -0.984375 L 17.84375 -18.765625 L 13.015625 -18.765625 L 13.015625 -1.125 C 13.015625 -0.375 12.644531 0 11.90625 0 L 4.625 0 C 3.875 0 3.5 -0.375 3.5 -1.125 L 3.5 -54.875 C 3.5 -55.625 3.875 -56 4.625 -56 L 22.1875 -56 C 25.5 -56 28.003906 -55.144531 29.703125 -53.4375 C 31.410156 -51.738281 32.265625 -49.234375 32.265625 -45.921875 Z M 13.015625 -28 L 19.953125 -28 C 21.816406 -28 22.75 -28.929688 22.75 -30.796875 L 22.75 -43.953125 C 22.75 -45.828125 21.816406 -46.765625 19.953125 -46.765625 L 13.015625 -46.765625 Z M 13.015625 -28 "/></g></g></g><g fill="#fcd35a" fill-opacity="1"><g transform="translate(703.909398, 248.158148)"><g><path d="M 31.4375 -54.875 L 31.4375 -47.875 C 31.4375 -47.082031 31.0625 -46.6875 30.3125 -46.6875 L 12.8125 -46.6875 L 12.8125 -32.6875 L 26.1875 -32.6875 C 26.925781 -32.6875 27.296875 -32.289062 27.296875 -31.5 L 27.296875 -24.5625 C 27.296875 -23.769531 26.925781 -23.375 26.1875 -23.375 L 12.8125 -23.375 L 12.8125 -9.234375 L 30.3125 -9.234375 C 31.0625 -9.234375 31.4375 -8.863281 31.4375 -8.125 L 31.4375 -1.125 C 31.4375 -0.375 31.0625 0 30.3125 0 L 4.546875 0 C 3.847656 0 3.5 -0.375 3.5 -1.125 L 3.5 -54.875 C 3.5 -55.625 3.847656 -56 4.546875 -56 L 30.3125 -56 C 31.0625 -56 31.4375 -55.625 31.4375 -54.875 Z M 31.4375 -54.875 "/></g></g></g><g fill="#fcd35a" fill-opacity="1"><g transform="translate(738.837486, 248.158148)"><g><path d="M 13.578125 -56 L 21.421875 -56 C 24.734375 -56 27.238281 -55.144531 28.9375 -53.4375 C 30.644531 -51.738281 31.5 -49.234375 31.5 -45.921875 L 31.5 -38.5 C 31.5 -37.75 31.125 -37.375 30.375 -37.375 L 23.09375 -37.375 C 22.351562 -37.375 21.984375 -37.75 21.984375 -38.5 L 21.984375 -43.953125 C 21.984375 -45.828125 21.050781 -46.765625 19.1875 -46.765625 L 15.8125 -46.765625 C 13.945312 -46.765625 13.015625 -45.828125 13.015625 -43.953125 L 13.015625 -34.296875 L 29.6875 -28.84375 C 30.894531 -28.320312 31.5 -27.457031 31.5 -26.25 L 31.5 -10.078125 C 31.5 -6.816406 30.644531 -4.320312 28.9375 -2.59375 C 27.238281 -0.863281 24.734375 0 21.421875 0 L 13.578125 0 C 10.316406 0 7.820312 -0.863281 6.09375 -2.59375 C 4.363281 -4.320312 3.5 -6.816406 3.5 -10.078125 L 3.5 -17.4375 C 3.5 -18.175781 3.875 -18.546875 4.625 -18.546875 L 11.90625 -18.546875 C 12.644531 -18.546875 13.015625 -18.175781 13.015625 -17.4375 L 13.015625 -12.046875 C 13.015625 -10.171875 13.945312 -9.234375 15.8125 -9.234375 L 19.1875 -9.234375 C 21.050781 -9.234375 21.984375 -10.171875 21.984375 -12.046875 L 21.984375 -21.34375 L 5.390625 -26.8125 C 4.128906 -27.226562 3.5 -28.09375 3.5 -29.40625 L 3.5 -45.921875 C 3.5 -49.234375 4.363281 -51.738281 6.09375 -53.4375 C 7.820312 -55.144531 10.316406 -56 13.578125 -56 Z M 13.578125 -56 "/></g></g></g><g fill="#fcd35a" fill-opacity="1"><g transform="translate(773.835577, 248.158148)"><g><path d="M 3.5 -1.125 L 3.5 -54.875 C 3.5 -55.625 3.875 -56 4.625 -56 L 21.421875 -56 C 24.734375 -56 27.238281 -55.144531 28.9375 -53.4375 C 30.644531 -51.738281 31.5 -49.234375 31.5 -45.921875 L 31.5 -28.84375 C 31.5 -25.570312 30.644531 -23.070312 28.9375 -21.34375 C 27.238281 -19.625 24.734375 -18.765625 21.421875 -18.765625 L 13.015625 -18.765625 L 13.015625 -1.125 C 13.015625 -0.375 12.644531 0 11.90625 0 L 4.625 0 C 3.875 0 3.5 -0.375 3.5 -1.125 Z M 13.015625 -28 L 19.1875 -28 C 21.050781 -28 21.984375 -28.929688 21.984375 -30.796875 L 21.984375 -43.953125 C 21.984375 -45.828125 21.050781 -46.765625 19.1875 -46.765625 L 13.015625 -46.765625 Z M 13.015625 -28 "/></g></g></g><g fill="#fcd35a" fill-opacity="1"><g transform="translate(808.833668, 248.158148)"><g><path d="M 3.5 -10.078125 L 3.5 -45.921875 C 3.5 -49.234375 4.363281 -51.738281 6.09375 -53.4375 C 7.820312 -55.144531 10.316406 -56 13.578125 -56 L 21.421875 -56 C 24.734375 -56 27.238281 -55.144531 28.9375 -53.4375 C 30.644531 -51.738281 31.5 -49.234375 31.5 -45.921875 L 31.5 -10.078125 C 31.5 -6.816406 30.644531 -4.320312 28.9375 -2.59375 C 27.238281 -0.863281 24.734375 0 21.421875 0 L 13.578125 0 C 10.316406 0 7.820312 -0.863281 6.09375 -2.59375 C 4.363281 -4.320312 3.5 -6.816406 3.5 -10.078125 Z M 15.609375 -9.03125 L 19.671875 -9.03125 C 21.535156 -9.03125 22.46875 -9.960938 22.46875 -11.828125 L 22.46875 -44.171875 C 22.46875 -46.035156 21.535156 -46.96875 19.671875 -46.96875 L 15.609375 -46.96875 C 13.742188 -46.96875 12.8125 -46.035156 12.8125 -44.171875 L 12.8125 -11.828125 C 12.8125 -9.960938 13.742188 -9.03125 15.609375 -9.03125 Z M 15.609375 -9.03125 "/></g></g></g><g fill="#fcd35a" fill-opacity="1"><g transform="translate(843.83176, 248.158148)"><g><path d="M 24.984375 -56 L 32.265625 -56 C 33.015625 -56 33.390625 -55.625 33.390625 -54.875 L 33.390625 -1.125 C 33.390625 -0.375 33.015625 0 32.265625 0 L 25.34375 0 C 24.6875 0 24.265625 -0.300781 24.078125 -0.90625 L 13.375 -30.796875 L 13.015625 -30.796875 L 13.015625 -1.125 C 13.015625 -0.375 12.644531 0 11.90625 0 L 4.625 0 C 3.875 0 3.5 -0.375 3.5 -1.125 L 3.5 -54.875 C 3.5 -55.625 3.875 -56 4.625 -56 L 11.546875 -56 C 12.203125 -56 12.625 -55.695312 12.8125 -55.09375 L 23.453125 -25.34375 L 23.875 -25.34375 L 23.875 -54.875 C 23.875 -55.625 24.242188 -56 24.984375 -56 Z M 24.984375 -56 "/></g></g></g><g fill="#fcd35a" fill-opacity="1"><g transform="translate(880.719739, 248.158148)"><g><path d="M 13.578125 -56 L 21.421875 -56 C 24.734375 -56 27.238281 -55.144531 28.9375 -53.4375 C 30.644531 -51.738281 31.5 -49.234375 31.5 -45.921875 L 31.5 -38.5 C 31.5 -37.75 31.125 -37.375 30.375 -37.375 L 23.09375 -37.375 C 22.351562 -37.375 21.984375 -37.75 21.984375 -38.5 L 21.984375 -43.953125 C 21.984375 -45.828125 21.050781 -46.765625 19.1875 -46.765625 L 15.8125 -46.765625 C 13.945312 -46.765625 13.015625 -45.828125 13.015625 -43.953125 L 13.015625 -34.296875 L 29.6875 -28.84375 C 30.894531 -28.320312 31.5 -27.457031 31.5 -26.25 L 31.5 -10.078125 C 31.5 -6.816406 30.644531 -4.320312 28.9375 -2.59375 C 27.238281 -0.863281 24.734375 0 21.421875 0 L 13.578125 0 C 10.316406 0 7.820312 -0.863281 6.09375 -2.59375 C 4.363281 -4.320312 3.5 -6.816406 3.5 -10.078125 L 3.5 -17.4375 C 3.5 -18.175781 3.875 -18.546875 4.625 -18.546875 L 11.90625 -18.546875 C 12.644531 -18.546875 13.015625 -18.175781 13.015625 -17.4375 L 13.015625 -12.046875 C 13.015625 -10.171875 13.945312 -9.234375 15.8125 -9.234375 L 19.1875 -9.234375 C 21.050781 -9.234375 21.984375 -10.171875 21.984375 -12.046875 L 21.984375 -21.34375 L 5.390625 -26.8125 C 4.128906 -27.226562 3.5 -28.09375 3.5 -29.40625 L 3.5 -45.921875 C 3.5 -49.234375 4.363281 -51.738281 6.09375 -53.4375 C 7.820312 -55.144531 10.316406 -56 13.578125 -56 Z M 13.578125 -56 "/></g></g></g><g fill="#fcd35a" fill-opacity="1"><g transform="translate(915.71783, 248.158148)"><g><path d="M 4.625 -56 L 11.90625 -56 C 12.644531 -56 13.015625 -55.625 13.015625 -54.875 L 13.015625 -1.125 C 13.015625 -0.375 12.644531 0 11.90625 0 L 4.625 0 C 3.875 0 3.5 -0.375 3.5 -1.125 L 3.5 -54.875 C 3.5 -55.625 3.875 -56 4.625 -56 Z M 4.625 -56 "/></g></g></g><g fill="#fcd35a" fill-opacity="1"><g transform="translate(932.236918, 248.158148)"><g><path d="M 31.5625 -45.921875 L 31.5625 -33.046875 C 31.5625 -31.734375 31.140625 -30.632812 30.296875 -29.75 C 29.460938 -28.863281 28.414062 -28.300781 27.15625 -28.0625 L 27.15625 -27.9375 C 28.414062 -27.75 29.460938 -27.195312 30.296875 -26.28125 C 31.140625 -25.375 31.5625 -24.265625 31.5625 -22.953125 L 31.5625 -10.078125 C 31.5625 -6.816406 30.695312 -4.320312 28.96875 -2.59375 C 27.25 -0.863281 24.734375 0 21.421875 0 L 4.625 0 C 3.875 0 3.5 -0.375 3.5 -1.125 L 3.5 -54.875 C 3.5 -55.625 3.875 -56 4.625 -56 L 21.421875 -56 C 24.734375 -56 27.25 -55.144531 28.96875 -53.4375 C 30.695312 -51.738281 31.5625 -49.234375 31.5625 -45.921875 Z M 22.265625 -35.34375 L 22.265625 -43.953125 C 22.265625 -45.828125 21.328125 -46.765625 19.453125 -46.765625 L 13.09375 -46.765625 L 13.09375 -32.625 L 19.453125 -32.625 C 21.328125 -32.625 22.265625 -33.53125 22.265625 -35.34375 Z M 22.265625 -12.046875 L 22.265625 -20.578125 C 22.265625 -22.441406 21.328125 -23.375 19.453125 -23.375 L 13.09375 -23.375 L 13.09375 -9.234375 L 19.453125 -9.234375 C 21.328125 -9.234375 22.265625 -10.171875 22.265625 -12.046875 Z M 22.265625 -12.046875 "/></g></g></g><g fill="#fcd35a" fill-opacity="1"><g transform="translate(967.305001, 248.158148)"><g><path d="M 13.015625 -9.234375 L 13.015625 -54.875 C 13.015625 -55.625 12.644531 -56 11.90625 -56 L 4.625 -56 C 3.875 -56 3.5 -55.625 3.5 -54.875 L 3.5 -1.125 C 3.5 -0.375 3.875 0 4.625 0 L 29.6875 0 C 30.425781 0 30.796875 -0.375 30.796875 -1.125 L 30.796875 -8.125 C 30.796875 -8.863281 30.425781 -9.234375 29.6875 -9.234375 Z M 13.015625 -9.234375 "/></g></g></g><g fill="#fcd35a" fill-opacity="1"><g transform="translate(1001.603126, 248.158148)"><g><path d="M 31.4375 -54.875 L 31.4375 -47.875 C 31.4375 -47.082031 31.0625 -46.6875 30.3125 -46.6875 L 12.8125 -46.6875 L 12.8125 -32.6875 L 26.1875 -32.6875 C 26.925781 -32.6875 27.296875 -32.289062 27.296875 -31.5 L 27.296875 -24.5625 C 27.296875 -23.769531 26.925781 -23.375 26.1875 -23.375 L 12.8125 -23.375 L 12.8125 -9.234375 L 30.3125 -9.234375 C 31.0625 -9.234375 31.4375 -8.863281 31.4375 -8.125 L 31.4375 -1.125 C 31.4375 -0.375 31.0625 0 30.3125 0 L 4.546875 0 C 3.847656 0 3.5 -0.375 3.5 -1.125 L 3.5 -54.875 C 3.5 -55.625 3.847656 -56 4.546875 -56 L 30.3125 -56 C 31.0625 -56 31.4375 -55.625 31.4375 -54.875 Z M 31.4375 -54.875 "/></g></g></g><g fill="#fcd35a" fill-opacity="1"><g transform="translate(1036.531225, 248.158148)"><g/></g></g><g fill="#fcd35a" fill-opacity="1"><g transform="translate(1054.030247, 248.158148)"><g><path d="M 37.234375 0 L 29.8125 0 C 29.207031 0 28.835938 -0.328125 28.703125 -0.984375 L 26.734375 -11.203125 L 14.28125 -11.203125 L 12.390625 -0.984375 C 12.253906 -0.328125 11.878906 0 11.265625 0 L 3.78125 0 C 2.9375 0 2.632812 -0.394531 2.875 -1.1875 L 14.484375 -55.015625 C 14.628906 -55.671875 15.03125 -56 15.6875 -56 L 25.40625 -56 C 26.0625 -56 26.457031 -55.671875 26.59375 -55.015625 L 38.21875 -1.1875 C 38.363281 -0.394531 38.035156 0 37.234375 0 Z M 24.984375 -19.3125 L 20.515625 -43.75 L 16.03125 -19.3125 Z M 24.984375 -19.3125 "/></g></g></g><g fill="#fcd35a" fill-opacity="1"><g transform="translate(1095.048022, 248.158148)"><g><path d="M 4.625 -56 L 11.90625 -56 C 12.644531 -56 13.015625 -55.625 13.015625 -54.875 L 13.015625 -1.125 C 13.015625 -0.375 12.644531 0 11.90625 0 L 4.625 0 C 3.875 0 3.5 -0.375 3.5 -1.125 L 3.5 -54.875 C 3.5 -55.625 3.875 -56 4.625 -56 Z M 4.625 -56 "/></g></g></g></svg>